<?xml version="1.0" encoding="utf-8" ?>
<svg xmlns="http://www.w3.org/2000/svg" xmlns:xlink="http://www.w3.org/1999/xlink" width="1426" height="1426">
	<path transform="matrix(2.78516 0 0 2.78516 0.000244141 0)" d="M321.408 181.359L316.644 177.452C299.285 162.977 300.214 148.002 300.194 128.036C300.177 110.623 299.173 96.7014 311.28 82.3704C320.195 71.8184 331.737 66.0294 345.471 64.8531C359.754 63.4203 375.92 69.3683 385.516 79.9555C398.982 94.8134 398.898 106.672 398.942 124.948C399.006 151.502 398.707 163.445 378.463 181.359L378.463 189.795C383.153 190.168 409.008 198.854 414.541 201.396C436.41 211.445 439.189 229.483 439.185 250.261L439.187 289.348C439.207 312.611 433.852 330.942 405.792 333.816L405.797 360.872C405.795 382.119 402.476 399.829 401.186 420.561L423.003 420.548C429.288 420.511 439.192 418.882 440.043 428.378C441.109 440.269 422.243 437.245 415.267 437.273L101.834 437.284C95.0478 437.288 88.1482 437.533 81.3757 437.149C69.0572 436.452 72.5068 420.085 72.5082 411.225L72.4985 373.875L72.437 336.605C72.4488 322.479 86.6058 326.37 97.2988 326.401C94.5739 319.098 95.7398 310.903 95.7346 303.284L95.7203 288.449C95.7152 267.976 101.11 254.632 123.414 251.297C108.669 246.166 96.5016 236.92 94.4896 220.122C93.7511 213.956 93.7726 198.77 94.801 192.729C101.12 155.607 155.416 151.009 167.34 187.859C169.623 194.914 169.596 215.069 168.167 222.608C165.393 237.241 153.69 246.905 139.953 251.297C139.916 253.32 139.935 255.342 139.953 257.365C151.177 263.74 153.527 273.127 153.533 285.555L153.522 297.238L178.087 297.238C173.406 283.531 178.024 268.795 192.515 263.273C203.037 259.263 234.923 257.476 247.826 255.842C253.088 247.391 257.864 238.634 262.589 229.876C274.68 207.462 274.732 205.347 297.595 197.775L321.408 189.795L321.408 181.359ZM349.281 81.2616C331.748 81.2139 316.111 95.5237 316.72 113.484C331.401 113.586 343.362 112.74 353.433 100.933C357.197 96.9303 360.708 96.4769 364.626 100.693C371.658 108.262 372.68 109.597 382.275 114.168C382.063 96.6158 367.849 79.6472 349.281 81.2616ZM358.869 119.27C344.654 129.712 333.575 130.319 316.72 130.263C316.656 150.249 319.925 166.75 341.754 172.574C359.635 177.06 377.321 165.56 381.569 147.79C382.736 142.911 382.298 137.429 382.275 132.438C373.735 129.572 365.733 125.101 358.869 119.27ZM336.51 188.732C336.478 191.529 336.299 194.41 336.51 197.197C340.485 199.924 345.956 205.58 349.281 209.212C351.607 206.883 353.956 204.572 356.249 202.21C357.969 200.55 359.658 198.713 361.5 197.197L361.5 188.732C351.332 190.933 346.438 190.106 336.51 188.732ZM110.523 204.039C110.502 213.262 109.521 222.07 116.538 229.216C126.574 239.436 144.048 236.897 150.399 223.772C152.935 217.548 152.263 210.632 152.236 204.039C145.965 204.012 139.689 204.106 133.419 204.039C133.414 206.673 133.841 209.944 131.832 211.976C129.158 214.68 122.611 214.856 120.001 211.956C118.222 209.979 118.695 206.511 118.75 204.039C116.01 204.036 113.263 203.997 110.523 204.039ZM377.193 205.695C371.842 210.651 366.456 215.579 361.212 220.648C357.347 224.384 352.441 232.413 346.273 228.28C340.001 224.078 329.54 212.481 323.158 206.822C316.759 208.547 297.401 213.93 291.967 217.013C284.563 221.213 281.639 229.579 277.742 236.696L265.369 259.045C256.273 275.564 259.947 271.918 239.333 274.065C229.937 275.044 220.547 276.134 211.172 277.298C204.197 278.164 189.692 278.717 192.85 289.737C195.533 299.1 212.196 294.428 218.743 293.653L244.478 290.704C253.575 289.609 262.901 288.246 272.064 288.315C276.889 280.777 289.993 260.445 295.858 254.117C300.226 249.404 309.068 251.347 310.177 258.047C310.835 262.02 310.232 266.518 310.273 270.562L310.273 342.511L389.27 342.511L389.258 268.417C389.255 263.678 388.16 257.289 391.827 253.598C396.256 249.139 404.125 251.558 405.281 257.623C406.362 263.292 405.799 272.56 405.8 278.547L405.792 317.169C422.236 314.789 422.546 302.963 422.555 289.293L422.551 251.051C422.538 237.664 423.075 227.494 410.89 218.666C402.014 212.236 387.088 210.787 377.193 205.695ZM123.414 268.333C112.009 269.888 111.989 278.293 111.977 287.71L111.972 300.907C111.974 309.045 108.726 324.531 120.491 325.684C126.609 326.284 134.821 325.8 141.182 325.79L181.563 325.79C195.896 326.028 192.851 314.804 185.85 313.825C182.5 313.356 178.713 313.726 175.314 313.731L152.23 313.742C145.833 313.738 138.219 314.412 137.497 305.815C136.523 294.224 143.092 267.953 123.414 268.333ZM293.988 285.739C281.2 306.259 279.133 303.852 256.191 306.233C241.192 307.789 222.427 309.16 207.827 311.652C207.894 316.452 208.642 320.998 207.827 325.79L245.4 325.781C252.558 325.782 270.651 322.79 270.178 334.75C269.747 345.651 251.198 342.516 244.169 342.509L89.083 342.511L89.083 362.312L89.083 420.561L297.985 420.561C297.353 405.778 294.543 391.142 294.052 376.306C293.742 366.961 294.366 286.426 293.988 285.739ZM310.273 359.306C310.189 377.322 311.89 402.385 314.499 420.561C323.58 420.691 332.671 420.547 341.754 420.561L341.743 394.279C341.744 389.838 341.24 384.751 342.081 380.419C343.415 373.551 351.9 372.912 355.985 377.619C358.85 380.921 358.01 387.027 358.008 391.023L357.99 405.911L357.99 420.561L384.926 420.561C387.486 400.077 389.294 379.931 389.27 359.306L310.273 359.306Z"/>
</svg>
